<!-- icon666.com - MILLIONS vector ICONS FREE --><svg id="Icon_1_" enable-background="new 0 0 100 100" viewBox="0 0 100 100" xmlns="http://www.w3.org/2000/svg"><path id="Email_1_" d="m50.896 18.013c-8.708-.251-16.965 2.975-23.21 9.051-6.246 6.077-9.686 14.222-9.686 22.936 0 12.191 6.766 23.152 17.642 28.595 4.4 2.227 9.365 3.405 14.358 3.405s9.958-1.178 14.358-3.405l-3.613-7.137c-3.332 1.687-6.948 2.542-10.745 2.542s-7.413-.855-10.761-2.551c-8.166-4.087-13.239-12.305-13.239-21.449 0-6.535 2.58-12.645 7.265-17.203 4.683-4.557 10.852-6.946 17.413-6.788 12.86.352 23.322 11.376 23.322 24.573v3.418c0 2.206-1.794 4-4 4s-4-1.794-4-4v-4c0-8.822-7.178-16-16-16s-16 7.178-16 16 7.178 16 16 16c4.184 0 7.986-1.627 10.84-4.266 2.203 2.605 5.489 4.266 9.16 4.266 6.617 0 12-5.383 12-12v-3.418c0-17.489-13.953-32.1-31.104-32.569zm-.896 39.987c-4.411 0-8-3.589-8-8s3.589-8 8-8 8 3.589 8 8-3.589 8-8 8z"></path></svg>