<!-- icon666.com - MILLIONS vector ICONS FREE --><svg viewBox="0 0 152 152" xmlns="http://www.w3.org/2000/svg" xmlns:xlink="http://www.w3.org/1999/xlink"><radialGradient id="radial-gradient" cx="76" cy="76" gradientUnits="userSpaceOnUse" r="76"><stop offset="0" stop-color="#66bb6a"></stop><stop offset="1" stop-color="#2e7d32"></stop></radialGradient><g id="Layer_2" data-name="Layer 2"><g id="Circle"><g id="_05.Whatsapp" data-name="05.Whatsapp"><rect id="Background" fill="url(#radial-gradient)" height="152" rx="76" width="152"></rect><g fill="#fff"><path id="Shade" d="m133.2 26c-11.08 20.34-26.75 41.32-46.33 60.9s-40.56 35.22-60.87 46.3q-1.91-1.66-3.71-3.46a76 76 0 1 1 107.45-107.48q1.8 1.8 3.46 3.74z" opacity=".1"></path><path id="Icon" d="m76 36a40 40 0 0 0 -32.39 63.45l-5 14.86 15.39-4.92a40 40 0 1 0 22-73.39zm21.26 56.57-4.26 4.26c-4.48 4.48-16.36-.45-26.89-11s-15.25-22.4-10.99-26.83l4.26-4.26a4.47 4.47 0 0 1 6.05 0l6.28 6.26a4.17 4.17 0 0 1 -1.57 6.94 4.07 4.07 0 0 0 -2.69 4.94c1.12 4.7 7.17 10.53 11.66 11.65a4.27 4.27 0 0 0 4.89-2.72 4.18 4.18 0 0 1 7-1.57l6.27 6.28a4.47 4.47 0 0 1 -.01 6.05z"></path></g></g></g></g></svg>