<!-- icon666.com - MILLIONS vector ICONS FREE --><svg id="Capa_1" enable-background="new 0 0 511.929 511.929" viewBox="0 0 511.929 511.929" xmlns="http://www.w3.org/2000/svg"><g><g><circle cx="156.48" cy="167.957" fill="#fff8e6" r="149.025"></circle><path d="m165.674 310.873c0 1.954.05 3.896.124 5.832 6.306-.403 12.658-1.209 19.025-2.443 73.252-14.191 123.501-79.781 120.588-152.117-77.977 4.796-139.737 69.544-139.737 148.728z" fill="#ffeab7"></path><path d="m302.784 139.614c-6.679-34.474-24.747-63.846-49.538-84.986-75.183 19.861-151.693 34.683-228.854 44.335-15.103 28.87-20.896 62.864-14.217 97.338 7.523 38.832 29.494 71.193 59.253 92.604 71.668-9.889 142.796-23.669 212.972-41.259 19.61-30.975 27.907-69.2 20.384-108.032z" fill="#73da8c"></path><path d="m170.738 272.254c37.444-7.141 74.686-15.34 111.662-24.608 15.798-24.952 24.246-54.611 23.004-85.5-64.819 3.989-118.423 49.407-134.666 110.108z" fill="#00c755"></path><circle cx="355.405" cy="344.01" fill="#3b5a9b" r="149.025"></circle><path d="m310.596 323.489c0-49.279 18.399-94.253 48.69-128.453-1.29-.033-2.584-.05-3.882-.05-82.304 0-149.025 66.721-149.025 149.025s66.721 149.024 149.025 149.024c15.319 0 30.097-2.315 44.006-6.608-53.437-34.514-88.814-94.592-88.814-162.938z" fill="#194391"></path><ellipse cx="355.405" cy="344.01" fill="#fff8e6" rx="79.028" ry="79.028" transform="matrix(.383 -.924 .924 .383 -98.525 540.487)"></ellipse><path d="m310.596 323.489c0-16.684 2.109-32.876 6.073-48.324-24.027 13.572-40.293 39.337-40.293 68.845 0 37.156 25.782 68.386 60.39 76.788-16.635-28.6-26.17-61.839-26.17-97.309z" fill="#ffeab7"></path><ellipse cx="76.381" cy="198.573" fill="#fff" rx="30.936" ry="24.636" transform="matrix(.978 -.208 .208 .978 -39.617 20.22)"></ellipse><ellipse cx="240.401" cy="163.709" fill="#fff" rx="30.936" ry="24.636" transform="matrix(.978 -.208 .208 .978 -28.784 53.56)"></ellipse><ellipse cx="154.455" cy="162.626" fill="#303646" rx="16.422" ry="18.376" transform="matrix(.978 -.208 .208 .978 -30.437 35.668)"></ellipse></g><g><path d="m355.404 187.485c-15.465 0-30.409 2.266-44.529 6.463 5.42-32.122.556-65.59-13.795-94.863-9.375-19.291-22.669-36.458-39.005-50.195-36.476-31.092-84.355-43.707-131.364-34.603-9.1 1.764-18.064 4.333-26.644 7.637-3.865 1.489-5.792 5.829-4.304 9.694 1.489 3.865 5.829 5.793 9.694 4.304 7.759-2.988 15.87-5.312 24.106-6.909 37.574-7.274 75.761.805 106.919 22.214-64.948 16.537-131.34 29.397-197.787 38.312 9.938-14.911 22.651-27.915 37.362-38.082 3.408-2.355 4.261-7.026 1.906-10.434s-7.026-4.261-10.434-1.906c-20.807 14.382-38.024 33.873-49.788 56.369v.001c-36.303 66.746-15.118 156.292 47.372 199.546 27.004 19.418 58.469 29.515 90.875 29.515 10.03 0 20.151-.967 30.256-2.925 5.004-.969 9.947-2.208 14.814-3.651-1.425 8.471-2.178 17.168-2.178 26.038 0 86.308 70.217 156.524 156.524 156.524 38.326 0 75.207-13.995 103.847-39.407 3.099-2.749 3.382-7.489.633-10.587s-7.489-3.381-10.588-.632c-25.894 22.974-59.238 35.627-93.892 35.627-78.037 0-141.524-63.488-141.524-141.524s63.487-141.524 141.524-141.524 141.524 63.488 141.524 141.524c0 29.203-8.818 57.235-25.502 81.066-2.376 3.393-1.551 8.07 1.842 10.445 3.395 2.376 8.072 1.551 10.445-1.843 18.458-26.365 28.215-57.372 28.215-89.668.001-86.309-70.216-156.526-156.524-156.526zm-150.5 113.469c-6.953 2.523-14.17 4.521-21.512 5.943-32.006 6.199-64.17 1.403-92.473-13.502 42.199-6.269 84.543-13.983 126.363-22.953-5.145 9.62-9.318 19.832-12.378 30.512zm23.439-48.243c-51.804 11.507-104.566 21.044-156.935 28.342-53.841-39.595-72.028-115.415-42.102-175.155 74.614-9.508 149.256-23.966 221.997-43.002 13.44 12.115 24.43 26.665 32.278 42.73 13.418 27.637 17.617 59.45 11.823 89.583-.139.721-.287 1.452-.446 2.184l-.369 1.695c-.062.27-.122.513-.183.774-26.566 11.285-49.39 29.71-66.063 52.849z"></path><path d="m268.876 344.01c0 47.712 38.817 86.529 86.529 86.529 47.711 0 86.527-38.817 86.527-86.529s-38.816-86.528-86.527-86.528c-47.712 0-86.529 38.816-86.529 86.528zm158.057 0c0 39.441-32.087 71.529-71.527 71.529-39.441 0-71.529-32.088-71.529-71.529s32.088-71.528 71.529-71.528c39.44 0 71.527 32.087 71.527 71.528z"></path><path d="m329.68 319.011c0 6.537 2.455 12.509 6.486 17.052-8.035 5.922-13.26 15.447-13.26 26.172 0 17.92 14.578 32.499 32.498 32.499s32.499-14.579 32.499-32.499c0-10.725-5.225-20.249-13.26-26.171 4.031-4.543 6.487-10.515 6.487-17.053 0-14.185-11.54-25.725-25.726-25.725-14.184 0-25.724 11.54-25.724 25.725zm25.724 60.723c-9.648 0-17.498-7.85-17.498-17.499s7.85-17.499 17.498-17.499c9.649 0 17.499 7.85 17.499 17.499s-7.849 17.499-17.499 17.499zm10.726-60.723c0 5.914-4.812 10.726-10.726 10.726-5.913 0-10.725-4.812-10.725-10.726s4.812-10.725 10.725-10.725c5.914 0 10.726 4.811 10.726 10.725z"></path><path d="m149.075 137.315c-12.902 2.742-20.985 16.328-18.019 30.284 2.611 12.284 12.926 20.824 24.158 20.824 1.529 0 3.075-.159 4.621-.487 6.407-1.361 11.802-5.371 15.189-11.289 3.229-5.642 4.234-12.388 2.83-18.995-2.966-13.956-15.877-23.081-28.779-20.337zm12.931 31.88c-1.237 2.162-3.116 3.606-5.29 4.068-4.811 1.023-9.741-2.917-10.988-8.783s1.654-11.471 6.466-12.494c.513-.109 1.026-.161 1.537-.161 4.283 0 8.337 3.704 9.451 8.944.636 2.997.219 5.989-1.176 8.426z"></path><path d="m102.996 146.952c-4.764-3.094-10.446-4.145-16.002-2.966-11.469 2.438-18.816 13.751-16.379 25.221.75 3.526 3.863 5.943 7.329 5.942.516 0 1.041-.054 1.566-.165 4.051-.861 6.638-4.844 5.777-8.896-.718-3.379 1.446-6.712 4.825-7.43 3.377-.715 6.711 1.446 7.43 4.825.861 4.051 4.841 6.64 8.896 5.776 4.051-.861 6.638-4.844 5.776-8.896-1.181-5.555-4.455-10.318-9.218-13.411z"></path><path d="m207.343 118.404c-11.469 2.438-18.816 13.752-16.378 25.221.75 3.526 3.863 5.942 7.329 5.942.517 0 1.041-.054 1.567-.166 4.051-.861 6.638-4.844 5.776-8.895-.718-3.379 1.446-6.712 4.825-7.43 3.381-.722 6.712 1.446 7.43 4.825.861 4.051 4.841 6.64 8.896 5.776 4.051-.861 6.638-4.844 5.776-8.895-2.438-11.467-13.752-18.814-25.221-16.378z"></path></g></g></svg>