<!-- icon666.com - MILLIONS vector ICONS FREE --><svg id="Capa_1" enable-background="new 0 0 512 512" viewBox="0 0 512 512" xmlns="http://www.w3.org/2000/svg"><g><g><path d="m374.184 498.816-16.817-16.816h-202.734l-16.816 16.816c-17.52 17.549-46.113 17.549-63.633 0-17.549-17.549-17.549-46.084 0-63.633l16.816-16.816v-119.93c-17.461-6.197-30-22.881-30-42.437s12.539-36.24 30-42.437v-119.93l-16.816-16.817c-17.549-17.549-17.549-46.084 0-63.633 17.52-17.549 46.113-17.549 63.633 0l16.816 16.817h202.734l16.816-16.816c17.52-17.549 46.113-17.549 63.633 0 17.549 17.549 17.549 46.084 0 63.633l-16.816 16.816v119.931c17.461 6.196 30 22.881 30 42.437s-12.539 36.24-30 42.437v119.931l16.816 16.816c17.549 17.549 17.549 46.084 0 63.633-17.497 17.526-46.113 17.547-63.632-.002z" fill="#4d4d80"></path></g><path d="m451 256c0-19.556-12.539-36.24-30-42.437v-119.93l16.816-16.816c17.549-17.549 17.549-46.084 0-63.633-17.52-17.549-46.113-17.549-63.633 0l-16.816 16.816h-101.367v452h101.367l16.816 16.816c17.498 17.527 46.113 17.549 63.633 0 17.549-17.549 17.549-46.084 0-63.633l-16.816-16.816v-119.93c17.461-6.197 30-22.881 30-42.437z" fill="#443d66"></path><g id="Billiard"><path d="m142.213 452h227.574l25.606 25.606c5.848 5.848 15.365 5.848 21.213 0 2.834-2.833 4.395-6.6 4.395-10.606s-1.561-7.773-4.394-10.605l-25.607-25.606v-159.789h15c8.271 0 15-6.729 15-15s-6.729-15-15-15h-15v-159.787l25.606-25.606c2.834-2.833 4.395-6.6 4.395-10.606s-1.561-7.773-4.394-10.605c-2.835-2.836-6.6-4.396-10.607-4.396s-7.772 1.56-10.605 4.394l-25.608 25.606h-227.574l-25.606-25.606c-2.835-2.834-6.6-4.394-10.607-4.394s-7.772 1.56-10.605 4.394c-2.835 2.834-4.396 6.6-4.396 10.606s1.561 7.773 4.394 10.605l25.607 25.608v159.787h-15c-8.271 0-15 6.729-15 15s6.729 15 15 15h15v159.788l-25.606 25.606c-2.834 2.833-4.395 6.6-4.395 10.606s1.561 7.773 4.394 10.605c5.851 5.851 15.367 5.848 21.214.001z" fill="#8cd96b" style="fill: rgb(206, 39, 39);"></path></g><path d="m256 452h113.787l25.606 25.606c5.848 5.848 15.365 5.848 21.213 0 2.834-2.833 4.395-6.6 4.395-10.606s-1.561-7.773-4.394-10.605l-25.607-25.606v-159.789h15c8.271 0 15-6.729 15-15s-6.729-15-15-15h-15v-159.787l25.606-25.606c2.834-2.833 4.395-6.6 4.395-10.606s-1.561-7.773-4.394-10.605c-2.835-2.836-6.6-4.396-10.607-4.396s-7.772 1.56-10.605 4.394l-25.608 25.606h-113.787z" fill="#5ab267" style="fill: rgb(8, 140, 28);"></path><g id="Billiard_2_"><g><path d="m0 121h181v30h-181z" fill="#ffdf40"></path></g><g><path d="m331 361h181v30h-181z" fill="#ffbe40"></path></g><g><path d="m256 181c-24.814 0-45-20.186-45-45s20.186-45 45-45 45 20.186 45 45-20.186 45-45 45z" fill="#ff5959"></path></g><g><path d="m196 391c-24.814 0-45-20.186-45-45s20.186-45 45-45 45 20.186 45 45-20.186 45-45 45z" fill="#edf1f9"></path></g><g><path d="m316 301c-24.814 0-45-20.186-45-45s20.186-45 45-45 45 20.186 45 45-20.186 45-45 45z" fill="#443d66"></path></g></g><path d="m301 136c0-24.814-20.186-45-45-45v90c24.814 0 45-20.186 45-45z" fill="#e63a57"></path></g></svg>