<!-- icon666.com - MILLIONS vector ICONS FREE --><svg id="colour_copy" viewBox="0 0 256 256" xmlns="http://www.w3.org/2000/svg" data-name="colour copy"><circle cx="72.961" cy="88.724" fill="#005696" r="53.763" transform="matrix(.965 -.262 .262 .965 -20.671 22.179)" style="fill: rgb(0, 85, 255);"></circle><path d="m112.4709 83.4834a4.3115 4.3115 0 0 1 -4.575-3.3444 38.2372 38.2372 0 0 0 -13.3952-21.5154 4.3109 4.3109 0 0 1 5.417-6.7077 46.7756 46.7756 0 0 1 16.3876 26.321 4.3108 4.3108 0 0 1 -3.2536 5.1557 4.3622 4.3622 0 0 1 -.5808.0908z" fill="#fff"></path><ellipse cx="55.215" cy="91.754" fill="#fff" rx="25.12" ry="29.248" transform="matrix(.9 -.435 .435 .9 -34.435 33.184)"></ellipse><path d="m59.845 103.5024 13.2429-10.8788 4.48 5.454-20.7792 17.07c-1.0892-1.75-5.2322-4.7276-5.0775-11.9539-.0866-4.006 2.3288-10.6747 2.606-12.7921 1.626-8.0037-3.1706-9.8913-4.6716-9.7945-4.6752.1079-8.954 6.5737-9.4636 11.2606l-4.7536-5.7877c1.2346-4.0735 7.0275-13.59 16.4526-13.8986 1.68-.183 10.29 1.633 10.7332 12.5551.0265 3.2992-1.3382 7.5265-1.8106 9.0531-.2864 1.4497-2.7451 7.5269-.9586 9.7128z" fill="#005696" style="fill: rgb(0, 85, 255);"></path><circle cx="177.192" cy="113.883" fill="#f29327" r="59.156" transform="matrix(.623 -.782 .782 .623 -22.279 181.54)" style="fill: rgb(255, 213, 0);"></circle><ellipse cx="190.956" cy="99.636" fill="#fff" rx="27.64" ry="32.182" transform="matrix(.468 -.884 .884 .468 13.553 221.782)"></ellipse><circle cx="101.4" cy="153.424" fill="#4f5153" r="68.486" transform="matrix(.628 -.778 .778 .628 -81.669 135.912)" style="fill: rgb(0, 0, 0);"></circle><path d="m151.729 146.749a5.4922 5.4922 0 0 1 -5.8279-4.26 48.7085 48.7085 0 0 0 -17.0635-27.4075 5.4915 5.4915 0 1 1 6.9-8.5446 59.5852 59.5852 0 0 1 20.8753 33.5291 5.4913 5.4913 0 0 1 -4.1446 6.5676 5.5568 5.5568 0 0 1 -.7393.1154z" fill="#fff"></path><ellipse cx="85.015" cy="137.378" fill="#fff" rx="37.257" ry="31.999" transform="matrix(.474 -.881 .881 .474 -76.246 147.136)"></ellipse><path d="m95.5057 113.0959a18.5045 18.5045 0 0 0 -9.5411-1.893 13.1254 13.1254 0 0 0 -10.9746 7.5031c-2.0527 4.2884-1.3724 9.1745 1.8509 13.52-6.8167-.0472-11.8078 2.8047-14.3711 8.16a12.9851 12.9851 0 0 0 -.0893 11.0115c1.6983 3.8445 5.0422 7.0475 9.67 9.2629a20.334 20.334 0 0 0 10.4872 2.074 14.2767 14.2767 0 0 0 11.9562-8.1318c2.4924-5.2065 1.425-10.8568-2.9958-15.9956.317-.0129.6294-.0327.9353-.0595 6.6336-.58 9.7334-4.2683 11.1655-7.26 2.6856-5.6102 1.2983-13.6959-8.0932-18.1916zm-8.5057 38.6901a7.9392 7.9392 0 0 1 -6.5657 4.642 10.9659 10.9659 0 0 1 -5.634-1.1525 9.8177 9.8177 0 0 1 -5.2992-5.66 8.3338 8.3338 0 0 1 .6335-6.588 9.3143 9.3143 0 0 1 8.0651-5.318 15.7939 15.7939 0 0 1 3.8211.161c5.72 5.0886 7.2092 9.2569 4.9792 13.9155zm9.4535-23.1485a8.4688 8.4688 0 0 1 -7.3052 4.6747 14.3482 14.3482 0 0 1 -2.8083-.0422c-4.8236-4.1645-6.2131-7.8974-4.374-11.7386a7.1194 7.1194 0 0 1 5.8579-4.199 9.1373 9.1373 0 0 1 4.7564.9784 7.767 7.767 0 0 1 4.49 4.8131 7.8758 7.8758 0 0 1 -.6172 5.5136z" fill="#4f5153" style="fill: rgb(0, 0, 0);"></path><path d="m178.4755 81.7786 34.9577 26.0927-5.8662 7.8592-26.4686-19.7564a20.0519 20.0519 0 0 1 -2.6992 9.8346l-6.343-4.7344c.9547-2.4731 3.0224-9 2.8623-14.53z" fill="#f29327" style="fill: rgb(255, 213, 0);"></path></svg>