<!-- icon666.com - MILLIONS vector ICONS FREE --><svg version="1.1" id="Layer_1" xmlns="http://www.w3.org/2000/svg" xmlns:xlink="http://www.w3.org/1999/xlink" x="0px" y="0px" viewBox="0 0 512 512" style="enable-background:new 0 0 512 512;" xml:space="preserve"><circle style="fill:#FF5023;" cx="256.006" cy="148.973" r="47.212"></circle><circle style="fill:#016EF1;" cx="208.794" cy="230.728" r="47.212"></circle><circle style="fill:#FEDA44;" cx="303.208" cy="230.728" r="47.212"></circle><circle style="fill:#FF9911;" cx="161.582" cy="312.143" r="47.212"></circle><circle style="fill:#65C27C;" cx="256.006" cy="312.143" r="47.212"></circle><circle style="fill:#00DEC1;" cx="350.419" cy="312.143" r="47.212"></circle><circle style="fill:#D80029;" cx="114.37" cy="393.977" r="47.212"></circle><circle style="fill:#2E2E30;" cx="208.794" cy="393.977" r="47.212"></circle><circle style="fill:#943EC7;" cx="303.208" cy="393.977" r="47.212"></circle><circle style="fill:#C3FB3A;" cx="397.631" cy="393.977" r="47.212"></circle><path style="fill:#CD2A01;" d="M232.955,148.976c0-21.897,14.909-40.305,35.129-45.642c-3.857-1.018-7.904-1.566-12.081-1.566 c-26.073,0-47.21,21.136-47.21,47.21c0,26.073,21.136,47.21,47.21,47.21c4.177,0,8.224-0.548,12.081-1.566 C247.865,189.281,232.955,170.873,232.955,148.976z"></path><path style="fill:#005ECF;" d="M185.746,230.725c0-21.897,14.909-40.305,35.129-45.642c-3.857-1.018-7.904-1.566-12.081-1.566 c-26.073,0-47.21,21.136-47.21,47.21c0,26.073,21.136,47.21,47.21,47.21c4.177,0,8.224-0.548,12.081-1.566 C200.655,271.03,185.746,252.622,185.746,230.725z"></path><path style="fill:#FECE00;" d="M280.161,230.725c0-21.897,14.909-40.305,35.129-45.642c-3.857-1.018-7.904-1.566-12.081-1.566 c-26.073,0-47.21,21.136-47.21,47.21c0,26.073,21.136,47.21,47.21,47.21c4.177,0,8.224-0.548,12.081-1.566 C295.071,271.03,280.161,252.622,280.161,230.725z"></path><path style="fill:#D07400;" d="M138.538,312.146c0-21.897,14.909-40.305,35.129-45.642c-3.857-1.018-7.904-1.566-12.081-1.566 c-26.073,0-47.21,21.136-47.21,47.21c0,26.073,21.136,47.21,47.21,47.21c4.177,0,8.224-0.548,12.081-1.566 C153.448,352.451,138.538,334.042,138.538,312.146z"></path><path style="fill:#378B4F;" d="M232.954,312.146c0-21.897,14.909-40.305,35.129-45.642c-3.857-1.018-7.904-1.566-12.081-1.566 c-26.073,0-47.21,21.136-47.21,47.21c0,26.073,21.136,47.21,47.21,47.21c4.177,0,8.224-0.548,12.081-1.566 C247.863,352.451,232.954,334.042,232.954,312.146z"></path><path style="fill:#00AB95;" d="M327.374,312.146c0-21.897,14.909-40.305,35.129-45.642c-3.857-1.018-7.904-1.566-12.081-1.566 c-26.073,0-47.21,21.136-47.21,47.21c0,26.073,21.136,47.21,47.21,47.21c4.177,0,8.224-0.548,12.081-1.566 C342.284,352.451,327.374,334.042,327.374,312.146z"></path><path style="fill:#1D1D1F;" d="M185.743,393.973c0-21.897,14.909-40.305,35.129-45.642c-3.857-1.018-7.904-1.566-12.081-1.566 c-26.073,0-47.21,21.136-47.21,47.21c0,26.073,21.136,47.21,47.21,47.21c4.177,0,8.224-0.548,12.081-1.566 C200.653,434.279,185.743,415.87,185.743,393.973z"></path><path style="fill:#A50020;" d="M91.324,393.973c0-21.897,14.909-40.305,35.129-45.642c-3.857-1.018-7.904-1.566-12.081-1.566 c-26.073,0-47.21,21.136-47.21,47.21c0,26.073,21.136,47.21,47.21,47.21c4.177,0,8.224-0.548,12.081-1.566 C106.234,434.279,91.324,415.87,91.324,393.973z"></path><path style="fill:#6F2C93;" d="M280.159,393.973c0-21.897,14.909-40.305,35.129-45.642c-3.857-1.018-7.904-1.566-12.081-1.566 c-26.073,0-47.21,21.136-47.21,47.21c0,26.073,21.136,47.21,47.21,47.21c4.177,0,8.224-0.548,12.081-1.566 C295.068,434.279,280.159,415.87,280.159,393.973z"></path><path style="fill:#9CDD03;" d="M374.579,393.973c0-21.897,14.909-40.305,35.129-45.642c-3.857-1.018-7.904-1.566-12.081-1.566 c-26.073,0-47.21,21.136-47.21,47.21c0,26.073,21.136,47.21,47.21,47.21c4.177,0,8.224-0.548,12.081-1.566 C389.489,434.279,374.579,415.87,374.579,393.973z"></path><path style="fill:#B39A7C;" d="M498.312,408.155L295.001,58.49c-17.395-29.917-60.608-29.917-78.004,0L13.687,408.155 c-17.488,30.076,4.21,67.793,39.001,67.793h406.624C494.102,475.948,515.8,438.232,498.312,408.155z M448.977,451.657H63.022 c-20.209,0-32.813-21.908-22.654-39.378L233.345,80.387c10.104-17.377,35.205-17.377,45.309,0l192.977,331.892 C481.789,429.749,469.186,451.657,448.977,451.657z"></path><path d="M285.126,76.623C279.026,66.13,268.137,59.866,256,59.866c-12.138,0-23.026,6.265-29.128,16.757L33.895,408.515 c-6.134,10.549-6.162,23.161-0.078,33.737c6.085,10.576,17.003,16.891,29.205,16.891h385.955c12.203,0,23.12-6.315,29.205-16.891 c6.085-10.576,6.056-23.19-0.078-33.737L285.126,76.623z M169.072,230.725c0-21.902,17.819-39.721,39.722-39.721 s39.722,17.819,39.722,39.721c0,13.416-6.692,25.291-16.907,32.486c-2.085,1.043-4.097,2.207-6.02,3.498 c-5.105,2.392-10.794,3.737-16.795,3.737c-6.001,0-11.69-1.345-16.795-3.737c-1.923-1.291-3.936-2.455-6.02-3.498 C175.765,256.016,169.072,244.141,169.072,230.725z M239.209,276.161c5.105-2.392,10.794-3.737,16.794-3.737 c6,0,11.69,1.345,16.795,3.737c1.923,1.291,3.936,2.455,6.02,3.498c10.214,7.195,16.907,19.07,16.907,32.486 c0,21.903-17.819,39.722-39.722,39.722s-39.722-17.819-39.722-39.722c0-13.416,6.692-25.291,16.907-32.486 C235.272,278.617,237.286,277.452,239.209,276.161z M350.421,351.867c-21.902,0-39.721-17.819-39.721-39.722 c0-13.416,6.692-25.291,16.907-32.486c2.085-1.043,4.098-2.207,6.02-3.499c5.105-2.392,10.794-3.737,16.794-3.737 c21.903,0,39.722,17.819,39.722,39.722C390.144,334.048,372.324,351.867,350.421,351.867z M326.028,263.211 c-2.085,1.043-4.098,2.207-6.02,3.499c-5.105,2.392-10.794,3.737-16.794,3.737c-6,0-11.69-1.345-16.795-3.737 c-1.923-1.291-3.936-2.455-6.02-3.498c-10.214-7.195-16.907-19.07-16.907-32.486c0-21.902,17.819-39.721,39.722-39.721 c21.902,0,39.721,17.819,39.721,39.721C342.934,244.141,336.242,256.016,326.028,263.211z M178.379,276.161 c1.923,1.291,3.936,2.455,6.02,3.498c10.214,7.195,16.907,19.07,16.907,32.486c0,21.903-17.819,39.722-39.722,39.722 s-39.722-17.819-39.722-39.722c0-21.903,17.819-39.722,39.722-39.722C167.584,272.424,173.274,273.769,178.379,276.161z M208.79,354.252c21.903,0,39.722,17.819,39.722,39.722c0,21.903-17.819,39.722-39.722,39.722s-39.722-17.819-39.722-39.722 C169.068,372.072,186.887,354.252,208.79,354.252z M303.21,354.252c21.903,0,39.722,17.819,39.722,39.722 c0,21.903-17.819,39.722-39.722,39.722s-39.722-17.819-39.722-39.722C263.487,372.072,281.307,354.252,303.21,354.252z M350.903,257.461c4.326-7.685,6.845-16.511,6.985-25.907l19.06,32.781C369.217,260.028,360.343,257.543,350.903,257.461z M303.508,176.035c4.355-7.615,6.928-16.368,7.157-25.697l18.874,32.46C321.805,178.533,312.936,176.086,303.508,176.035z M295.725,148.976c0,21.903-17.819,39.722-39.722,39.722s-39.722-17.819-39.722-39.722s17.819-39.722,39.722-39.722 S295.725,127.074,295.725,148.976z M208.498,176.035c-9.432,0.05-18.306,2.5-26.042,6.769l18.885-32.478 C201.569,159.66,204.142,168.417,208.498,176.035z M161.103,257.461c-9.444,0.082-18.323,2.57-26.055,6.879l19.069-32.797 C154.257,240.943,156.776,249.773,161.103,257.461z M114.125,339.283c-9.758,0.044-18.914,2.664-26.839,7.201l19.617-33.738 C107.008,322.392,109.623,331.442,114.125,339.283z M114.371,354.252c21.903,0,39.722,17.819,39.722,39.722 c0,21.903-17.819,39.722-39.722,39.722s-39.722-17.819-39.722-39.722C74.649,372.072,92.469,354.252,114.371,354.252z M161.581,421.546c5.86,9.995,14.796,17.973,25.505,22.623h-51.01C146.786,439.52,155.721,431.541,161.581,421.546z M256,421.546 c5.86,9.995,14.796,17.973,25.505,22.623h-51.01C241.204,439.52,250.139,431.541,256,421.546z M350.418,421.546 c5.86,9.995,14.796,17.973,25.505,22.623h-51.01C335.624,439.52,344.558,431.541,350.418,421.546z M357.906,393.973 c0-21.903,17.819-39.722,39.722-39.722c21.903,0,39.722,17.819,39.722,39.722c0,21.903-17.819,39.722-39.722,39.722 C375.725,433.696,357.906,415.876,357.906,393.973z M397.882,339.283c4.5-7.838,7.115-16.884,7.222-26.526l19.611,33.727 C416.79,341.947,407.638,339.328,397.882,339.283z M239.819,84.151c3.389-5.829,9.439-9.31,16.181-9.31 c6.743,0,12.792,3.48,16.181,9.31l9.674,16.638c-7.703-4.149-16.507-6.509-25.852-6.509c-9.35,0-18.157,2.362-25.862,6.515 L239.819,84.151z M46.798,434.785c-3.38-5.875-3.364-12.883,0.043-18.742l12.834-22.071c0,0.001,0,0.002,0,0.003 c0,22.451,13.601,41.778,32.992,50.195H63.022C56.244,444.168,50.179,440.661,46.798,434.785z M465.201,434.785 c-3.38,5.876-9.445,9.383-16.224,9.383h-29.645c19.392-8.417,32.992-27.744,32.992-50.195c0-0.001,0-0.002,0-0.002l12.834,22.071 C468.566,421.902,468.583,428.91,465.201,434.785z"></path><path d="M504.786,404.391L301.474,54.726C291.949,38.344,274.949,28.565,256,28.565s-35.949,9.78-45.475,26.162L7.214,404.391 c-9.575,16.47-9.621,36.16-0.121,52.673c9.5,16.513,26.545,26.371,45.595,26.371h406.624c19.05,0,36.095-9.859,45.595-26.371 C514.407,440.551,514.362,420.861,504.786,404.391z M491.926,449.596c-6.796,11.812-18.989,18.864-32.615,18.864H52.688 c-13.626,0-25.819-7.052-32.615-18.864c-6.796-11.812-6.763-25.897,0.087-37.678L223.472,62.254 c6.814-11.719,18.974-18.714,32.529-18.714c13.556,0,25.715,6.995,32.529,18.714L491.841,411.92 C498.69,423.699,498.723,437.785,491.926,449.596z"></path><circle style="fill:#D8FC80;" cx="416.31" cy="393.977" r="13.662"></circle><circle style="fill:#A258CB;" cx="321.138" cy="393.977" r="13.662"></circle><circle style="fill:#44FFEA;" cx="367.401" cy="312.143" r="13.662"></circle><circle style="fill:#7BCC92;" cx="271.979" cy="312.143" r="13.662"></circle><circle style="fill:#FFE577;" cx="320.569" cy="230.728" r="13.662"></circle><circle style="fill:#FF6342;" cx="274.315" cy="148.973" r="13.662"></circle><circle style="fill:#2487FF;" cx="224.777" cy="230.728" r="13.662"></circle><circle style="fill:#FFA834;" cx="176.567" cy="312.143" r="13.662"></circle><circle style="fill:#3E3D43;" cx="225.956" cy="393.977" r="13.662"></circle><circle style="fill:#FE0B37;" cx="130.783" cy="393.977" r="13.662"></circle></svg>